<svg id="Layer_1" height="512" viewBox="0 0 256 256" width="512" xmlns="http://www.w3.org/2000/svg"><g><g><g><g><path d="m194.942 224.958h-79.124c-1.721 0-3.116-1.395-3.116-3.116v-8.421c0-1.721 1.395-3.116 3.116-3.116h79.124c1.721 0 3.116 1.395 3.116 3.116v8.421c.001 1.72-1.394 3.116-3.116 3.116z" fill="#e0ebfc"/></g></g><g><g><path d="m194.942 226.958h-79.124c-2.821 0-5.117-2.295-5.117-5.116v-8.421c0-2.821 2.295-5.117 5.117-5.117h79.124c2.821 0 5.116 2.295 5.116 5.117v8.421c.001 2.821-2.294 5.116-5.116 5.116zm-79.123-14.654c-.616 0-1.117.501-1.117 1.117v8.421c0 .615.501 1.116 1.117 1.116h79.124c.615 0 1.116-.501 1.116-1.116v-8.421c0-.616-.501-1.117-1.116-1.117z" fill="#3762cc"/></g></g><g><g><g><path d="m184.901 210.304h-75.656c-1.721 0-3.116-1.395-3.116-3.116v-125.287c0-1.721 1.395-3.116 3.116-3.116h75.656c1.721 0 3.116 1.395 3.116 3.116v125.287c0 1.721-1.395 3.116-3.116 3.116z" fill="#6bdddd"/></g></g><g><g><path d="m144.995 126.661h-9.617c-1.147 0-2.078-.93-2.078-2.078v-20.663c0-1.147.93-2.078 2.078-2.078h9.617c1.147 0 2.078.93 2.078 2.078v20.664c0 1.147-.93 2.077-2.078 2.077z" fill="#fff"/></g></g><g><g><path d="m174.442 126.661h-9.617c-1.147 0-2.078-.93-2.078-2.078v-20.663c0-1.147.93-2.078 2.078-2.078h9.617c1.147 0 2.078.93 2.078 2.078v20.664c0 1.147-.93 2.077-2.078 2.077z" fill="#fff"/></g></g><g><g><path d="m144.995 161.998h-9.617c-1.147 0-2.078-.93-2.078-2.078v-20.664c0-1.147.93-2.078 2.078-2.078h9.617c1.147 0 2.078.93 2.078 2.078v20.664c0 1.147-.93 2.078-2.078 2.078z" fill="#fff"/></g></g><g><g><path d="m174.442 161.998h-9.617c-1.147 0-2.078-.93-2.078-2.078v-20.664c0-1.147.93-2.078 2.078-2.078h9.617c1.147 0 2.078.93 2.078 2.078v20.664c0 1.147-.93 2.078-2.078 2.078z" fill="#fff"/></g></g><g><g><path d="m144.995 197.334h-9.617c-1.147 0-2.078-.93-2.078-2.078v-20.664c0-1.147.93-2.078 2.078-2.078h9.617c1.147 0 2.078.93 2.078 2.078v20.664c0 1.148-.93 2.078-2.078 2.078z" fill="#e0ebfc"/></g></g><g><g><path d="m174.442 197.334h-9.617c-1.147 0-2.078-.93-2.078-2.078v-20.664c0-1.147.93-2.078 2.078-2.078h9.617c1.147 0 2.078.93 2.078 2.078v20.664c0 1.148-.93 2.078-2.078 2.078z" fill="#fff"/></g></g><g><g><path d="m184.9 212.304h-75.655c-2.821 0-5.117-2.295-5.117-5.116v-125.288c0-2.821 2.295-5.116 5.117-5.116h75.655c2.821 0 5.116 2.295 5.116 5.116v125.287c.001 2.822-2.294 5.117-5.116 5.117zm-75.655-131.52c-.616 0-1.117.5-1.117 1.116v125.287c0 .616.501 1.116 1.117 1.116h75.655c.615 0 1.116-.5 1.116-1.116v-125.287c0-.616-.501-1.116-1.116-1.116z" fill="#3762cc"/></g></g><g><g><path d="m144.995 128.661h-9.617c-2.249 0-4.078-1.829-4.078-4.078v-20.663c0-2.249 1.829-4.078 4.078-4.078h9.617c2.249 0 4.078 1.829 4.078 4.078v20.664c0 2.248-1.829 4.077-4.078 4.077zm-9.617-24.819c-.043 0-.078.035-.078.078v20.664c0 .043.035.078.078.078h9.617c.043 0 .078-.035.078-.078v-20.664c0-.043-.035-.078-.078-.078z" fill="#3762cc"/></g></g><g><g><path d="m174.442 128.661h-9.618c-2.248 0-4.077-1.829-4.077-4.078v-20.663c0-2.249 1.829-4.078 4.077-4.078h9.618c2.248 0 4.077 1.829 4.077 4.078v20.664c.001 2.248-1.829 4.077-4.077 4.077zm-9.618-24.819c-.043 0-.077.035-.077.078v20.664c0 .043.034.078.077.078h9.618c.043 0 .077-.035.077-.078v-20.664c0-.043-.034-.078-.077-.078z" fill="#3762cc"/></g></g><g><g><path d="m144.995 163.998h-9.617c-2.249 0-4.078-1.829-4.078-4.078v-20.664c0-2.249 1.829-4.078 4.078-4.078h9.617c2.249 0 4.078 1.829 4.078 4.078v20.664c0 2.248-1.829 4.078-4.078 4.078zm-9.617-24.819c-.043 0-.078.035-.078.078v20.664c0 .043.035.078.078.078h9.617c.043 0 .078-.035.078-.078v-20.664c0-.043-.035-.078-.078-.078z" fill="#3762cc"/></g></g><g><g><path d="m174.442 163.998h-9.618c-2.248 0-4.077-1.829-4.077-4.078v-20.664c0-2.249 1.829-4.078 4.077-4.078h9.618c2.248 0 4.077 1.829 4.077 4.078v20.664c.001 2.248-1.829 4.078-4.077 4.078zm-9.618-24.819c-.043 0-.077.035-.077.078v20.664c0 .043.034.078.077.078h9.618c.043 0 .077-.035.077-.078v-20.664c0-.043-.034-.078-.077-.078z" fill="#3762cc"/></g></g><g><g><path d="m144.995 199.334h-9.617c-2.249 0-4.078-1.829-4.078-4.078v-20.664c0-2.249 1.829-4.078 4.078-4.078h9.617c2.249 0 4.078 1.829 4.078 4.078v20.664c0 2.249-1.829 4.078-4.078 4.078zm-9.617-24.819c-.043 0-.078.035-.078.078v20.664c0 .043.035.078.078.078h9.617c.043 0 .078-.035.078-.078v-20.664c0-.043-.035-.078-.078-.078z" fill="#3762cc"/></g></g><g><g><path d="m174.442 199.334h-9.618c-2.248 0-4.077-1.829-4.077-4.078v-20.664c0-2.249 1.829-4.078 4.077-4.078h9.618c2.248 0 4.077 1.829 4.077 4.078v20.664c.001 2.249-1.829 4.078-4.077 4.078zm-9.618-24.819c-.043 0-.077.035-.077.078v20.664c0 .043.034.078.077.078h9.618c.043 0 .077-.035.077-.078v-20.664c0-.043-.034-.078-.077-.078z" fill="#3762cc"/></g></g><g><g><path d="m189.748 88.544h-80.503c-1.721 0-3.116-1.395-3.116-3.116v-13.288c0-1.721 1.395-3.116 3.116-3.116h80.503c1.721 0 3.116 1.395 3.116 3.116v13.288c.001 1.721-1.394 3.116-3.116 3.116z" fill="#a4c9ff"/></g></g><g><g><path d="m189.748 90.544h-80.503c-2.821 0-5.117-2.295-5.117-5.117v-13.287c0-2.821 2.295-5.116 5.117-5.116h80.503c2.821 0 5.117 2.295 5.117 5.116v13.288c0 2.821-2.296 5.116-5.117 5.116zm-80.503-19.52c-.616 0-1.117.5-1.117 1.116v13.288c0 .616.501 1.117 1.117 1.117h80.503c.616 0 1.117-.501 1.117-1.117v-13.288c0-.616-.501-1.116-1.117-1.116z" fill="#3762cc"/></g></g></g><g><g><g><path d="m131.633 224.958h-118.48c-.921 0-1.667-.746-1.667-1.667v-11.32c0-.921.746-1.667 1.667-1.667h118.48c.921 0 1.667.746 1.667 1.667v11.32c0 .92-.746 1.667-1.667 1.667z" fill="#a4c9ff"/></g></g><g><g><path d="m131.633 226.958h-118.48c-2.022 0-3.667-1.645-3.667-3.667v-11.32c0-2.022 1.645-3.667 3.667-3.667h118.479c2.022 0 3.667 1.645 3.667 3.667v11.32c.001 2.022-1.644 3.667-3.666 3.667zm-118.147-4h117.814v-10.654h-117.814z" fill="#3762cc"/></g></g><g><g><path d="m113.456 180.875h-82.126v-171.095c0-2.268 1.838-4.106 4.106-4.106h73.913c2.268 0 4.106 1.838 4.106 4.106v171.095z" fill="#a4c9ff"/></g></g><g><g><path d="m113.456 182.875h-82.125c-1.104 0-2-.896-2-2v-171.095c0-3.367 2.739-6.106 6.106-6.106h73.913c3.367 0 6.106 2.739 6.106 6.106v171.095c0 1.105-.895 2-2 2zm-80.125-4h78.125v-169.095c0-1.162-.945-2.106-2.106-2.106h-73.913c-1.161 0-2.106.945-2.106 2.106z" fill="#3762cc"/></g></g><g><g><path d="m124.064 210.304h-103.342v-184.099c0-2.268 1.838-4.106 4.106-4.106h95.129c2.268 0 4.106 1.838 4.106 4.106v184.099z" fill="#e0ebfc"/></g></g><g><g><g><path d="m59.616 67.858h-18.065c-1.598 0-2.893-1.295-2.893-2.893v-20.81c0-1.598 1.295-2.893 2.893-2.893h18.065c1.598 0 2.893 1.295 2.893 2.893v20.81c0 1.597-1.295 2.893-2.893 2.893z" fill="#a4c9ff"/></g></g><g><g><path d="m103.235 67.858h-18.065c-1.598 0-2.893-1.295-2.893-2.893v-20.81c0-1.598 1.295-2.893 2.893-2.893h18.065c1.598 0 2.893 1.295 2.893 2.893v20.81c.001 1.597-1.295 2.893-2.893 2.893z" fill="#a4c9ff"/></g></g></g><g><g><g><path d="m59.616 116.496h-18.065c-1.598 0-2.893-1.295-2.893-2.893v-20.81c0-1.598 1.295-2.893 2.893-2.893h18.065c1.598 0 2.893 1.295 2.893 2.893v20.81c0 1.598-1.295 2.893-2.893 2.893z" fill="#a4c9ff"/></g></g><g><g><path d="m103.235 116.496h-18.065c-1.598 0-2.893-1.295-2.893-2.893v-20.81c0-1.598 1.295-2.893 2.893-2.893h18.065c1.598 0 2.893 1.295 2.893 2.893v20.81c.001 1.598-1.295 2.893-2.893 2.893z" fill="#a4c9ff"/></g></g></g><g><g><path d="m59.616 165.135h-18.065c-1.598 0-2.893-1.295-2.893-2.893v-20.81c0-1.598 1.295-2.893 2.893-2.893h18.065c1.598 0 2.893 1.295 2.893 2.893v20.81c0 1.597-1.295 2.893-2.893 2.893z" fill="#a4c9ff"/></g></g><g><g><path d="m103.235 165.135h-18.065c-1.598 0-2.893-1.295-2.893-2.893v-20.81c0-1.598 1.295-2.893 2.893-2.893h18.065c1.598 0 2.893 1.295 2.893 2.893v20.81c.001 1.597-1.295 2.893-2.893 2.893z" fill="#a4c9ff"/></g></g><g><g><path d="m89.845 210.304h-34.904v-26.535c0-1.598 1.295-2.893 2.893-2.893h29.117c1.598 0 2.893 1.295 2.893 2.893v26.535z" fill="#e0ebfc"/></g></g><g><g><path d="m124.064 212.304h-103.341c-1.104 0-2-.896-2-2v-184.098c0-3.367 2.739-6.106 6.106-6.106h95.129c3.367 0 6.106 2.739 6.106 6.106v184.098c0 1.104-.896 2-2 2zm-101.341-4h99.341v-182.098c0-1.162-.945-2.106-2.106-2.106h-95.129c-1.161 0-2.106.945-2.106 2.106z" fill="#3762cc"/></g></g><g><g><g><path d="m59.616 69.857h-18.065c-2.698 0-4.893-2.195-4.893-4.893v-20.81c0-2.698 2.195-4.893 4.893-4.893h18.065c2.698 0 4.893 2.195 4.893 4.893v20.81c0 2.699-2.195 4.893-4.893 4.893zm-18.065-26.595c-.493 0-.893.4-.893.893v20.81c0 .493.4.893.893.893h18.065c.493 0 .893-.4.893-.893v-20.81c0-.493-.4-.893-.893-.893z" fill="#3762cc"/></g></g><g><g><path d="m103.235 69.857h-18.065c-2.698 0-4.893-2.195-4.893-4.893v-20.81c0-2.698 2.195-4.893 4.893-4.893h18.065c2.698 0 4.893 2.195 4.893 4.893v20.81c0 2.699-2.194 4.893-4.893 4.893zm-18.065-26.595c-.493 0-.893.4-.893.893v20.81c0 .493.4.893.893.893h18.065c.493 0 .893-.4.893-.893v-20.81c0-.493-.4-.893-.893-.893z" fill="#3762cc"/></g></g></g><g><g><g><path d="m59.616 118.496h-18.065c-2.698 0-4.893-2.195-4.893-4.893v-20.81c0-2.698 2.195-4.893 4.893-4.893h18.065c2.698 0 4.893 2.195 4.893 4.893v20.81c0 2.698-2.195 4.893-4.893 4.893zm-18.065-26.596c-.493 0-.893.4-.893.893v20.81c0 .493.4.893.893.893h18.065c.493 0 .893-.4.893-.893v-20.81c0-.493-.4-.893-.893-.893z" fill="#3762cc"/></g></g><g><g><path d="m103.235 118.496h-18.065c-2.698 0-4.893-2.195-4.893-4.893v-20.81c0-2.698 2.195-4.893 4.893-4.893h18.065c2.698 0 4.893 2.195 4.893 4.893v20.81c0 2.698-2.194 4.893-4.893 4.893zm-18.065-26.596c-.493 0-.893.4-.893.893v20.81c0 .493.4.893.893.893h18.065c.493 0 .893-.4.893-.893v-20.81c0-.493-.4-.893-.893-.893z" fill="#3762cc"/></g></g></g><g><g><path d="m59.616 167.135h-18.065c-2.698 0-4.893-2.195-4.893-4.893v-20.81c0-2.698 2.195-4.893 4.893-4.893h18.065c2.698 0 4.893 2.195 4.893 4.893v20.81c0 2.698-2.195 4.893-4.893 4.893zm-18.065-26.596c-.493 0-.893.4-.893.893v20.81c0 .493.4.893.893.893h18.065c.493 0 .893-.4.893-.893v-20.81c0-.493-.4-.893-.893-.893z" fill="#3762cc"/></g></g><g><g><path d="m103.235 167.135h-18.065c-2.698 0-4.893-2.195-4.893-4.893v-20.81c0-2.698 2.195-4.893 4.893-4.893h18.065c2.698 0 4.893 2.195 4.893 4.893v20.81c0 2.698-2.194 4.893-4.893 4.893zm-18.065-26.596c-.493 0-.893.4-.893.893v20.81c0 .493.4.893.893.893h18.065c.493 0 .893-.4.893-.893v-20.81c0-.493-.4-.893-.893-.893z" fill="#3762cc"/></g></g><g><g><path d="m89.845 210.304h-34.904v-26.535c0-1.598 1.295-2.893 2.893-2.893h29.117c1.598 0 2.893 1.295 2.893 2.893v26.535z" fill="#4671c6"/></g></g><g><g><path d="m89.845 212.304h-34.904c-1.104 0-2-.896-2-2v-26.535c0-2.698 2.195-4.893 4.893-4.893h29.117c2.698 0 4.893 2.195 4.893 4.893v26.535c.001 1.104-.895 2-1.999 2zm-32.904-4h30.903v-24.535c0-.493-.4-.893-.893-.893h-29.117c-.493 0-.893.4-.893.893z" fill="#3762cc"/></g></g></g></g><g><g><g><path d="m209.179 188.347h-27.248l1.989 56.89c.099 2.839 2.43 5.09 5.271 5.09h19.988 19.989c2.841 0 5.171-2.25 5.271-5.09l1.989-56.89z" fill="#4671c6"/></g></g><g><g><path d="m229.167 252.326h-39.977c-3.938 0-7.131-3.083-7.27-7.02l-1.989-56.89c-.019-.542.184-1.069.561-1.459.377-.391.896-.611 1.438-.611h54.496c.543 0 1.062.22 1.438.611.377.39.579.917.561 1.459l-1.988 56.89c-.138 3.937-3.332 7.02-7.27 7.02zm-45.165-61.979 1.917 54.82c.062 1.771 1.499 3.16 3.271 3.16h39.977c1.773 0 3.211-1.388 3.272-3.16l1.916-54.819h-50.353z" fill="#3762cc"/></g></g><g><g><path d="m237.446 193.796h-56.957c-1.748 0-3.164-1.417-3.164-3.164v-4.571c0-1.748 1.417-3.164 3.164-3.164h56.957c1.748 0 3.164 1.417 3.164 3.164v4.571c.001 1.748-1.416 3.164-3.164 3.164z" fill="#4671c6"/></g></g><g><g><path d="m237.446 195.796h-56.957c-2.848 0-5.164-2.317-5.164-5.165v-4.57c0-2.848 2.316-5.165 5.164-5.165h56.957c2.848 0 5.164 2.317 5.164 5.165v4.57c0 2.848-2.316 5.165-5.164 5.165zm-56.957-10.899c-.642 0-1.164.522-1.164 1.165v4.57c0 .642.522 1.165 1.164 1.165h56.957c.642 0 1.164-.522 1.164-1.165v-4.57c0-.642-.522-1.165-1.164-1.165z" fill="#3762cc"/></g></g><g><g><path d="m193.969 227.012h-15.202c-1.104 0-2-.896-2-2s.896-2 2-2h15.202c.515 0 1.204-.732 1.468-1.958l7.129-33.127c.233-1.08 1.297-1.771 2.376-1.534 1.08.232 1.767 1.296 1.534 2.376l-7.129 33.127c-.658 3.059-2.82 5.116-5.378 5.116z" fill="#3762cc"/></g></g><g><g><path d="m241.349 219.336h-25.165c-1.748 0-3.164-1.417-3.164-3.164v-33.275h31.493v33.275c.001 1.748-1.416 3.164-3.164 3.164z" fill="#e0ebfc"/></g></g><g><g><path d="m241.35 221.336h-25.165c-2.848 0-5.164-2.316-5.164-5.164v-33.275c0-1.104.896-2 2-2h31.493c1.104 0 2 .896 2 2v33.275c0 2.848-2.317 5.164-5.164 5.164zm-26.329-36.439v31.275c0 .642.522 1.164 1.164 1.164h25.165c.642 0 1.164-.522 1.164-1.164v-31.275z" fill="#3762cc"/></g></g></g><g><g><path d="m158.206 21.292c-.412-1.157-2.049-1.157-2.461 0-2.735 7.676-8.52 14.045-16.146 17.441-1.049.467-1.047 1.93.002 2.397 7.419 3.308 13.327 9.534 16.144 17.439.412 1.157 2.049 1.157 2.461 0 2.735-7.676 8.52-14.045 16.145-17.44 1.05-.467 1.047-1.93-.002-2.398-7.364-3.287-13.306-9.477-16.143-17.439z" fill="#a4c9ff"/></g></g><g><g><path d="m227.582 117.44c-.412-1.157-2.049-1.157-2.461 0-2.735 7.676-8.52 14.045-16.146 17.441-1.049.467-1.047 1.93.002 2.397 7.419 3.308 13.327 9.534 16.144 17.439.412 1.157 2.049 1.157 2.461 0 2.735-7.676 8.52-14.045 16.145-17.44 1.05-.467 1.047-1.93-.002-2.398-7.364-3.286-13.306-9.477-16.143-17.439z" fill="#a4c9ff"/></g></g></g></svg>